<svg xmlns="http://www.w3.org/2000/svg" xmlns:xlink="http://www.w3.org/1999/xlink" width="500" zoomAndPan="magnify" viewBox="0 0 375 374.999991" height="500" preserveAspectRatio="xMidYMid meet" version="1.0"><defs><clipPath id="da903d50a1"><path d="M 71.074219 159 L 74 159 L 74 179 L 71.074219 179 Z M 71.074219 159 " clip-rule="nonzero"/></clipPath><clipPath id="e7f80d11f8"><path d="M 205 330 L 216 330 L 216 332.773438 L 205 332.773438 Z M 205 330 " clip-rule="nonzero"/></clipPath><clipPath id="04ef341ce4"><path d="M 215 330 L 225 330 L 225 332.773438 L 215 332.773438 Z M 215 330 " clip-rule="nonzero"/></clipPath><clipPath id="c14ba014b5"><path d="M 231 332 L 238 332 L 238 332.773438 L 231 332.773438 Z M 231 332 " clip-rule="nonzero"/></clipPath><clipPath id="323f933dce"><path d="M 151 42.523438 L 160 42.523438 L 160 47 L 151 47 Z M 151 42.523438 " clip-rule="nonzero"/></clipPath><clipPath id="77521329ed"><path d="M 300 249 L 303.574219 249 L 303.574219 253 L 300 253 Z M 300 249 " clip-rule="nonzero"/></clipPath><clipPath id="b895206bcd"><path d="M 0 337.5 L 37.5 337.5 L 37.5 375 L 0 375 Z M 0 337.5 " clip-rule="nonzero"/></clipPath><clipPath id="bd484d0f7d"><path d="M 11.914062 337.5 C -2.214844 337.5 -13.671875 348.953125 -13.671875 363.085938 C -13.671875 377.214844 -2.214844 388.671875 11.914062 388.671875 C 26.046875 388.671875 37.5 377.214844 37.5 363.085938 C 37.5 348.953125 26.046875 337.5 11.914062 337.5 Z M 11.914062 337.5 " clip-rule="nonzero"/></clipPath></defs><rect x="-37.5" width="450" fill="#ffffff" y="-37.499999" height="449.999989" fill-opacity="1"/><rect x="-37.5" width="450" fill="#000000" y="-37.499999" height="449.999989" fill-opacity="1"/><path fill="#ffffff" d="M 122.109375 290.976562 C 119.425781 288.21875 114.730469 283.671875 112.800781 282.453125 C 112.695312 282.398438 112.539062 282.355469 112.421875 282.355469 C 112.453125 283.660156 124.65625 295.480469 126.019531 295.523438 C 125.984375 295.050781 123.875 292.789062 122.109375 290.976562 " fill-opacity="1" fill-rule="nonzero"/><path fill="#ffffff" d="M 137.957031 302.421875 C 135.132812 300.015625 130.023438 296.074219 127.5 295.097656 C 127.3125 295.046875 127.03125 294.972656 126.9375 295.058594 C 126.449219 295.5 129.652344 298.519531 132.953125 301.0625 C 137.183594 304.320312 141.039062 306.691406 141.734375 306.457031 C 141.960938 305.945312 139.464844 303.710938 137.957031 302.421875 " fill-opacity="1" fill-rule="nonzero"/><path fill="#ffffff" d="M 85.21875 240.835938 C 85.15625 240.777344 85.046875 240.710938 84.960938 240.710938 C 84.9375 242.421875 93.085938 258.007812 94.042969 258.078125 C 94.054688 257.390625 92.425781 253.976562 91.457031 252.003906 C 89.757812 248.558594 86.5625 242.480469 85.21875 240.835938 " fill-opacity="1" fill-rule="nonzero"/><path fill="#ffffff" d="M 95.363281 257.5625 C 95.195312 257.480469 94.984375 257.382812 94.878906 257.492188 C 93.820312 258.566406 103.386719 272.710938 105.652344 273.417969 C 106.53125 273.691406 105.578125 271.34375 103.332031 267.710938 C 101.234375 264.308594 97.375 258.914062 95.363281 257.5625 " fill-opacity="1" fill-rule="nonzero"/><path fill="#ffffff" d="M 117.640625 281.726562 C 115.324219 278.632812 110.859375 273.785156 108.179688 272.683594 C 107.957031 272.628906 107.652344 272.550781 107.476562 272.671875 C 105.632812 273.949219 116.417969 286.570312 119.753906 287.039062 C 120.980469 287.210938 120.113281 285.023438 117.640625 281.726562 " fill-opacity="1" fill-rule="nonzero"/><path fill="#ffffff" d="M 78.03125 222.660156 C 78.136719 222.996094 78.300781 223.488281 78.507812 224.09375 C 78.34375 223.605469 78.179688 223.113281 78.027344 222.648438 L 78.03125 222.660156 " fill-opacity="1" fill-rule="nonzero"/><path fill="#ffffff" d="M 89.902344 246.59375 C 91.183594 247.320312 90.957031 244.4375 89.378906 239.890625 C 88.015625 235.96875 85.179688 229.789062 83.148438 228.339844 C 83.027344 228.289062 82.855469 228.207031 82.726562 228.230469 C 80.609375 228.636719 86.976562 244.941406 89.902344 246.59375 " fill-opacity="1" fill-rule="nonzero"/><path fill="#ffffff" d="M 101.808594 262.597656 C 103.5625 263.175781 103.4375 260.417969 101.519531 256.1875 C 99.859375 252.523438 96.261719 246.824219 93.460938 245.613281 C 93.21875 245.558594 92.890625 245.484375 92.644531 245.636719 C 90.195312 247.175781 97.816406 261.28125 101.808594 262.597656 " fill-opacity="1" fill-rule="nonzero"/><path fill="#ffffff" d="M 115.800781 276.835938 C 118.351562 277.675781 118.550781 274.992188 116.238281 270.851562 C 114.058594 266.941406 109.75 262.195312 106.597656 261.34375 C 106.289062 261.3125 105.871094 261.261719 105.550781 261.433594 C 102.539062 263.023438 110.582031 275.117188 115.800781 276.835938 " fill-opacity="1" fill-rule="nonzero"/><path fill="#ffffff" d="M 75.972656 209.804688 C 75.90625 209.746094 75.808594 209.675781 75.722656 209.652344 C 74.441406 210.445312 79.460938 228.730469 81.089844 229.214844 C 81.734375 228.8125 80.546875 223.667969 80.167969 222.101562 C 79.242188 218.257812 77.277344 211.519531 75.972656 209.804688 " fill-opacity="1" fill-rule="nonzero"/><path fill="#ffffff" d="M 88.808594 233.722656 C 90.871094 234.863281 91.621094 231.570312 90.480469 226.382812 C 89.574219 222.253906 87.054688 215.878906 84.292969 214.628906 C 84.109375 214.589844 83.851562 214.535156 83.664062 214.578125 C 80.117188 215.355469 84.390625 231.28125 88.808594 233.722656 " fill-opacity="1" fill-rule="nonzero"/><path fill="#ffffff" d="M 100.425781 250.117188 C 103.371094 251.617188 104.53125 248.378906 102.910156 243.191406 C 101.675781 239.257812 98.332031 233.265625 94.746094 232.25 C 94.507812 232.222656 94.175781 232.191406 93.941406 232.25 C 89.738281 233.246094 94.828125 247.273438 100.425781 250.117188 " fill-opacity="1" fill-rule="nonzero"/><path fill="#ffffff" d="M 114.488281 264.90625 C 118.371094 266.695312 119.996094 263.59375 117.898438 258.402344 C 116.417969 254.726562 112.429688 249.226562 108.210938 248.5 C 107.828125 248.492188 107.300781 248.476562 106.832031 248.695312 C 102.894531 250.5625 108.335938 262.074219 114.488281 264.90625 " fill-opacity="1" fill-rule="nonzero"/><path fill="#ffffff" d="M 79.757812 215.722656 C 81.21875 217.023438 81.882812 213.777344 81.242188 208.484375 C 80.742188 204.351562 79.167969 197.882812 77.230469 196.4375 C 77.101562 196.386719 76.914062 196.3125 76.78125 196.335938 C 74.148438 196.808594 76.628906 212.933594 79.757812 215.722656 " fill-opacity="1" fill-rule="nonzero"/><path fill="#ffffff" d="M 94.792969 211.789062 C 94.339844 207.628906 92.140625 201.3125 88.671875 200.292969 C 88.425781 200.269531 88.085938 200.246094 87.84375 200.300781 C 83.558594 201.300781 85.359375 215.398438 90.257812 219.15625 C 93.253906 221.457031 95.460938 217.875 94.792969 211.789062 " fill-opacity="1" fill-rule="nonzero"/><path fill="#ffffff" d="M 107.265625 228.652344 C 106.4375 224.5 103.378906 218.304688 99.179688 217.542969 C 98.878906 217.535156 98.46875 217.53125 98.175781 217.609375 C 93.300781 218.863281 95.871094 231.839844 101.796875 235.882812 C 105.835938 238.636719 108.546875 235.054688 107.265625 228.652344 " fill-opacity="1" fill-rule="nonzero"/><path fill="#ffffff" d="M 122.226562 244.332031 C 121.117188 240.371094 117.40625 234.566406 112.632812 234.074219 C 112.292969 234.085938 111.832031 234.109375 111.507812 234.203125 C 106.160156 235.730469 109.667969 248.03125 116.445312 251.523438 C 121.042969 253.894531 123.90625 250.332031 122.226562 244.332031 " fill-opacity="1" fill-rule="nonzero"/><path fill="#ffffff" d="M 81.789062 201.664062 C 83.859375 203.445312 85.601562 200.019531 85.519531 194.335938 C 85.460938 190.199219 84.207031 183.824219 81.609375 182.609375 C 81.421875 182.566406 81.15625 182.523438 80.96875 182.5625 C 77.265625 183.328125 77.910156 198.324219 81.789062 201.664062 " fill-opacity="1" fill-rule="nonzero"/><path fill="#ffffff" d="M 101.957031 196.558594 C 101.871094 192.382812 99.960938 186.164062 95.96875 185.417969 C 95.816406 185.414062 95.613281 185.398438 95.464844 185.40625 C 90.164062 185.785156 89.566406 198.507812 94.617188 203.554688 C 98.25 207.191406 102.089844 203.527344 101.957031 196.558594 " fill-opacity="1" fill-rule="nonzero"/><path fill="#ffffff" d="M 114.144531 212.929688 C 113.699219 208.738281 110.972656 202.605469 106.320312 202.101562 C 106.144531 202.109375 105.914062 202.105469 105.742188 202.125 C 99.746094 202.84375 100.226562 215.664062 106.425781 220.417969 C 110.847656 223.804688 114.890625 219.886719 114.144531 212.929688 " fill-opacity="1" fill-rule="nonzero"/><path fill="#ffffff" d="M 128.910156 228.6875 C 128.136719 224.5 124.699219 218.496094 119.484375 218.242188 C 119.289062 218.261719 119.03125 218.269531 118.839844 218.300781 C 112.679688 219.273438 113.578125 231.175781 120.171875 235.992188 C 125.511719 239.886719 130.246094 235.925781 128.910156 228.6875 " fill-opacity="1" fill-rule="nonzero"/><path fill="#ffffff" d="M 86.390625 186.679688 C 89.023438 189.722656 92.210938 186.203125 92.703125 179.703125 C 93.015625 175.585938 92.015625 169.351562 88.8125 168.375 C 88.691406 168.363281 88.527344 168.335938 88.40625 168.339844 C 83.960938 168.414062 82.453125 182.128906 86.390625 186.679688 " fill-opacity="1" fill-rule="nonzero"/><path fill="#ffffff" d="M 101.867188 188.0625 C 105.613281 192.304688 110.660156 188.476562 111.023438 181.117188 C 111.226562 176.957031 109.566406 170.878906 105.246094 170.386719 C 98.765625 170.667969 97.410156 183.015625 101.867188 188.0625 " fill-opacity="1" fill-rule="nonzero"/><path fill="#ffffff" d="M 122.949219 196.925781 C 122.792969 192.722656 120.332031 186.6875 115.347656 186.425781 C 108.066406 187.058594 107.765625 199.570312 113.296875 204.40625 C 117.902344 208.4375 123.222656 204.3125 122.949219 196.925781 " fill-opacity="1" fill-rule="nonzero"/><path fill="#ffffff" d="M 126.671875 219.640625 C 132.1875 224.386719 138.320312 220.164062 137.425781 212.234375 C 136.953125 208.015625 133.789062 202.0625 128.238281 202.042969 C 120.691406 202.976562 120.738281 214.53125 126.671875 219.640625 " fill-opacity="1" fill-rule="nonzero"/><path fill="#ffffff" d="M 102.003906 164.949219 C 102.601562 160.871094 101.816406 154.808594 98.214844 154.101562 C 92.476562 154.027344 90.128906 167.257812 93.824219 171.855469 C 96.71875 175.457031 101 171.839844 102.003906 164.949219 " fill-opacity="1" fill-rule="nonzero"/><path fill="#ffffff" d="M 148.777344 289.925781 C 153.300781 291.070312 155.09375 288.21875 152.613281 283.824219 C 150.863281 280.710938 146.160156 276.253906 141.195312 276.078125 C 140.519531 276.128906 139.820312 276.179688 139.140625 276.65625 C 135.304688 279.328125 141.695312 288.132812 148.777344 289.925781 " fill-opacity="1" fill-rule="nonzero"/><path fill="#ffffff" d="M 157.035156 270.957031 C 155.628906 267.523438 151.164062 262.703125 145.636719 262.738281 C 145.125 262.796875 144.425781 262.878906 143.765625 263.191406 C 138.722656 265.574219 142.695312 274.742188 150.015625 277.617188 C 155.65625 279.832031 159.265625 276.410156 157.035156 270.957031 " fill-opacity="1" fill-rule="nonzero"/><path fill="#ffffff" d="M 163.710938 256.410156 C 162.605469 252.667969 158.347656 247.511719 152.347656 247.757812 C 152.128906 247.792969 151.832031 247.824219 151.613281 247.871094 C 145.007812 249.265625 146.222656 259.066406 153.527344 263.289062 C 160 267.03125 165.710938 263.171875 163.710938 256.410156 " fill-opacity="1" fill-rule="nonzero"/><path fill="#ffffff" d="M 160.933594 231.222656 C 160.695312 231.265625 160.382812 231.308594 160.148438 231.363281 C 153.015625 233.085938 153.417969 243.714844 160.785156 248.085938 C 167.265625 251.933594 173.800781 247.46875 172.25 240.261719 C 171.382812 236.234375 167.296875 230.765625 160.933594 231.222656 " fill-opacity="1" fill-rule="nonzero"/><path fill="#ffffff" d="M 149.867188 300.292969 C 152.964844 300.695312 153.347656 298.355469 150.734375 294.960938 C 148.597656 292.183594 143.644531 288.105469 139.316406 287.730469 C 138.738281 287.742188 138.140625 287.757812 137.644531 288.140625 C 134.582031 290.503906 143.605469 299.476562 149.867188 300.292969 " fill-opacity="1" fill-rule="nonzero"/><path fill="#ffffff" d="M 153.25 308.792969 C 154.976562 308.753906 154.308594 306.972656 151.589844 304.371094 C 149.214844 302.097656 144.019531 298.273438 140.199219 297.691406 C 139.722656 297.671875 139.230469 297.648438 138.929688 297.941406 C 136.914062 299.875 148.828125 308.902344 153.25 308.792969 " fill-opacity="1" fill-rule="nonzero"/><path fill="#ffffff" d="M 132.355469 265.589844 C 138.1875 268.453125 141.988281 264.675781 139.75 258.238281 C 138.347656 254.210938 133.820312 248.429688 128.136719 248.195312 C 127.734375 248.226562 127.195312 248.277344 126.808594 248.394531 C 120.820312 250.1875 124.554688 261.757812 132.355469 265.589844 " fill-opacity="1" fill-rule="nonzero"/><path fill="#ffffff" d="M 131.304688 278.695312 C 135.894531 280.257812 137.796875 276.972656 135.296875 271.804688 C 133.503906 268.105469 128.703125 262.683594 123.625 262.210938 C 123.164062 262.222656 122.527344 262.242188 121.964844 262.503906 C 117.140625 264.753906 123.6875 276.101562 131.304688 278.695312 " fill-opacity="1" fill-rule="nonzero"/><path fill="#ffffff" d="M 80.136719 176.742188 C 80.507812 172.320312 80.171875 165.425781 78.253906 163.949219 C 78.109375 163.894531 77.898438 163.828125 77.746094 163.855469 C 74.5 164.414062 73.574219 181.671875 76.632812 184.601562 C 78.082031 185.988281 79.652344 182.460938 80.136719 176.742188 " fill-opacity="1" fill-rule="nonzero"/><path fill="#ffffff" d="M 73.691406 177.179688 C 73.609375 177.113281 73.484375 177.011719 73.378906 177.023438 C 71.425781 177.238281 72.308594 196.015625 74.375 198.171875 C 75.246094 199.085938 75.824219 195.742188 75.714844 190.390625 C 75.625 185.9375 74.933594 178.890625 73.691406 177.179688 " fill-opacity="1" fill-rule="nonzero"/><path fill="#ffffff" d="M 145.800781 243.03125 C 144.816406 239.03125 140.875 233.402344 135.1875 233.40625 C 134.777344 233.457031 134.222656 233.53125 133.828125 233.660156 C 127.828125 235.644531 129.636719 246.269531 136.675781 250.382812 C 142.523438 253.800781 147.46875 249.8125 145.800781 243.03125 " fill-opacity="1" fill-rule="nonzero"/><path fill="#ffffff" d="M 143.203125 234.097656 C 149.332031 238.457031 155.703125 234.019531 154.378906 226.316406 C 153.65625 222.101562 149.925781 216.273438 143.898438 216.496094 C 143.675781 216.53125 143.375 216.566406 143.152344 216.613281 C 136.316406 218.109375 136.347656 229.21875 143.203125 234.097656 " fill-opacity="1" fill-rule="nonzero"/><path fill="#ffffff" d="M 132.179688 289.320312 C 135.121094 289.9375 135.449219 287.433594 132.925781 283.621094 C 130.882812 280.53125 126.1875 275.886719 122.152344 275.238281 C 121.617188 275.21875 121.0625 275.199219 120.605469 275.578125 C 117.851562 277.847656 126.507812 288.121094 132.179688 289.320312 " fill-opacity="1" fill-rule="nonzero"/><path fill="#ffffff" d="M 135.738281 298.722656 C 137.273438 298.785156 136.523438 296.773438 133.914062 293.828125 C 131.457031 291.054688 126.523438 286.773438 123.246094 285.9375 C 122.8125 285.882812 122.40625 285.832031 122.171875 286.125 C 120.613281 288.09375 131.898438 298.570312 135.738281 298.722656 " fill-opacity="1" fill-rule="nonzero"/><g clip-path="url(#da903d50a1)"><path fill="#ffffff" d="M 73.265625 159.457031 C 73.246094 159.417969 73.222656 159.363281 73.207031 159.324219 C 73.167969 159.320312 73.113281 159.316406 73.074219 159.3125 C 72.054688 161.03125 71.074219 176.6875 71.867188 178.574219 C 71.90625 178.574219 71.960938 178.578125 72 178.578125 C 72.445312 177.761719 72.820312 173.859375 73.003906 171.609375 C 73.308594 167.824219 73.652344 161.179688 73.265625 159.457031 " fill-opacity="1" fill-rule="nonzero"/></g><path fill="#ffffff" d="M 77.382812 158.640625 C 78.136719 154.65625 78.765625 148.394531 77.808594 146.9375 C 77.730469 146.878906 77.609375 146.800781 77.511719 146.808594 C 75.410156 147.046875 72.71875 163.785156 74.480469 165.667969 C 75.230469 166.464844 76.476562 163.445312 77.382812 158.640625 " fill-opacity="1" fill-rule="nonzero"/><path fill="#ffffff" d="M 84.496094 145.402344 C 85.613281 141.496094 86.523438 135.433594 85.039062 134.203125 C 84.976562 134.183594 84.894531 134.140625 84.828125 134.128906 C 81.933594 133.652344 77.644531 148.65625 79.671875 152.167969 C 80.71875 153.984375 82.929688 150.886719 84.496094 145.402344 " fill-opacity="1" fill-rule="nonzero"/><path fill="#ffffff" d="M 87.492188 138.625 C 88.738281 140.894531 91.816406 137.730469 93.953125 131.980469 C 95.371094 128.167969 96.5 122.351562 94.578125 121.359375 C 90.980469 120.71875 85.285156 134.59375 87.492188 138.625 " fill-opacity="1" fill-rule="nonzero"/><path fill="#ffffff" d="M 86.976562 162.320312 C 87.695312 158.292969 87.664062 152.109375 85.34375 150.980469 C 85.253906 150.964844 85.128906 150.929688 85.035156 150.921875 C 81.289062 150.722656 78.535156 165.101562 81.53125 169.238281 C 83.265625 171.636719 85.914062 168.273438 86.976562 162.320312 " fill-opacity="1" fill-rule="nonzero"/><path fill="#ffffff" d="M 89.257812 154.851562 C 91.246094 157.777344 94.917969 154.34375 96.53125 148.039062 C 97.546875 144.082031 97.714844 138.109375 94.917969 137.226562 C 89.925781 136.828125 86.4375 150.707031 89.257812 154.851562 " fill-opacity="1" fill-rule="nonzero"/><path fill="#ffffff" d="M 122.238281 164.378906 C 122.660156 160.277344 121.207031 154.390625 116.667969 154.144531 C 110.296875 154.726562 107.820312 166.101562 111.621094 171.167969 C 115.296875 176.066406 121.449219 172.132812 122.238281 164.378906 " fill-opacity="1" fill-rule="nonzero"/><path fill="#ffffff" d="M 133.902344 179.5 C 133.960938 175.328125 131.710938 169.441406 126.511719 169.417969 C 119.214844 170.339844 117.710938 181.804688 122.65625 186.875 C 127.273438 191.601562 133.789062 187.328125 133.902344 179.5 " fill-opacity="1" fill-rule="nonzero"/><path fill="#ffffff" d="M 136.351562 202.152344 C 141.761719 206.667969 148.578125 202.085938 148.109375 194.246094 C 147.859375 190.027344 144.90625 184.183594 139.132812 184.390625 C 131.179688 185.636719 130.480469 197.257812 136.351562 202.152344 " fill-opacity="1" fill-rule="nonzero"/><path fill="#ffffff" d="M 154.164062 198.957031 C 146.246094 200.417969 145.691406 211.28125 151.535156 216.3125 C 157.589844 221.519531 165.429688 216.792969 164.445312 208.527344 C 163.941406 204.292969 160.414062 198.519531 154.164062 198.957031 " fill-opacity="1" fill-rule="nonzero"/><path fill="#ffffff" d="M 109.894531 138.738281 C 104.023438 139.027344 100.695312 151.074219 103.921875 155.78125 C 106.757812 159.921875 112.03125 156.195312 113.484375 149.023438 C 114.292969 145.023438 113.714844 139.191406 109.894531 138.738281 " fill-opacity="1" fill-rule="nonzero"/><path fill="#ffffff" d="M 99.1875 140.203125 C 101.242188 143.613281 105.78125 140.144531 107.859375 133.570312 C 109.082031 129.710938 109.425781 123.992188 106.359375 123.363281 C 101.082031 123.347656 96.585938 135.886719 99.1875 140.203125 " fill-opacity="1" fill-rule="nonzero"/><path fill="#ffffff" d="M 114.496094 219.667969 L 114.429688 219.777344 L 114.449219 219.789062 Z M 114.496094 219.667969 " fill-opacity="1" fill-rule="nonzero"/><path fill="#ffffff" d="M 118.390625 235.574219 L 118.511719 235.679688 L 118.40625 235.574219 C 118.402344 235.574219 118.398438 235.574219 118.390625 235.574219 " fill-opacity="1" fill-rule="nonzero"/><path fill="#ffffff" d="M 167.746094 287.609375 C 173.570312 289.894531 177.597656 286.753906 175.308594 281.714844 C 173.957031 278.738281 169.632812 274.660156 164.25 274.898438 C 163.6875 274.984375 162.988281 275.089844 162.324219 275.425781 C 157.828125 277.703125 161.070312 284.992188 167.746094 287.609375 " fill-opacity="1" fill-rule="nonzero"/><path fill="#ffffff" d="M 166.878906 299.351562 C 171.304688 300.207031 173.125 297.554688 170.695312 293.78125 C 169.125 291.347656 164.765625 287.507812 159.75 287.566406 C 159.417969 287.585938 158.40625 287.65625 157.625 288.222656 C 154.09375 290.765625 160.148438 298.050781 166.878906 299.351562 " fill-opacity="1" fill-rule="nonzero"/><path fill="#ffffff" d="M 144.984375 162.597656 C 145.199219 158.691406 143.238281 153.25 138.199219 153.398438 C 132.058594 154.042969 129.042969 163.949219 133.386719 169.21875 C 137.519531 174.238281 144.566406 170.214844 144.984375 162.597656 " fill-opacity="1" fill-rule="nonzero"/><path fill="#ffffff" d="M 128.550781 138.949219 C 122.484375 139.746094 119.664062 150.03125 122.984375 154.605469 C 126.253906 159.109375 132.382812 155.570312 133.558594 148.5 C 134.210938 144.597656 133.085938 139.050781 128.550781 138.949219 " fill-opacity="1" fill-rule="nonzero"/><path fill="#ffffff" d="M 75.855469 146.789062 C 76.542969 146.421875 77.757812 142.640625 78.417969 140.421875 C 78.679688 139.542969 80.96875 131.792969 80.628906 129.90625 C 80.601562 129.847656 80.542969 129.773438 80.484375 129.753906 C 80.453125 129.765625 80.40625 129.777344 80.378906 129.796875 C 78.808594 130.855469 74.667969 146.417969 75.855469 146.789062 " fill-opacity="1" fill-rule="nonzero"/><path fill="#ffffff" d="M 181.84375 267.671875 C 180.765625 264.625 177.011719 260.257812 171.085938 260.714844 C 170.636719 260.796875 170.039062 260.90625 169.613281 261.058594 C 164.078125 263.03125 165.695312 271.03125 172.273438 274.230469 C 177.945312 276.984375 184.066406 273.949219 181.84375 267.671875 " fill-opacity="1" fill-rule="nonzero"/><path fill="#ffffff" d="M 157.917969 315.085938 C 158.738281 314.953125 156.898438 313.386719 154.898438 311.960938 C 152.632812 310.347656 147.554688 307.101562 144.558594 306.363281 C 144.199219 306.316406 143.890625 306.269531 143.808594 306.472656 C 143.246094 307.890625 155.644531 315.457031 157.917969 315.085938 " fill-opacity="1" fill-rule="nonzero"/><path fill="#ffffff" d="M 167.546875 308.757812 C 170.660156 308.972656 171.082031 307.054688 168.550781 304.195312 C 166.890625 302.320312 162.515625 298.738281 157.835938 298.59375 C 157.207031 298.636719 156.617188 298.679688 156.125 299.046875 C 153.265625 301.183594 161.699219 308.351562 167.546875 308.757812 " fill-opacity="1" fill-rule="nonzero"/><path fill="#ffffff" d="M 115.632812 139.859375 C 117.90625 143.210938 123.214844 140.648438 124.96875 133.90625 C 125.613281 131.433594 126.320312 124.953125 121.9375 124.640625 C 116.402344 125.164062 112.847656 135.753906 115.632812 139.859375 " fill-opacity="1" fill-rule="nonzero"/><path fill="#ffffff" d="M 85.53125 128.164062 C 86.695312 125.296875 88.699219 119.511719 87.921875 118.152344 C 87.882812 118.128906 87.835938 118.082031 87.792969 118.066406 C 86.003906 117.453125 80.34375 131.625 81.414062 134.027344 C 81.9375 135.203125 83.667969 132.738281 85.53125 128.164062 " fill-opacity="1" fill-rule="nonzero"/><path fill="#ffffff" d="M 150.652344 167.855469 C 143.164062 169.234375 142.480469 179.289062 146.632812 183.621094 C 151.085938 188.265625 158.960938 184.996094 158.761719 176.746094 C 158.628906 171.328125 154.992188 167.339844 150.652344 167.855469 " fill-opacity="1" fill-rule="nonzero"/><path fill="#ffffff" d="M 181.550781 222.257812 C 180.90625 218.570312 177.648438 213.304688 171.300781 213.933594 C 163.789062 215.121094 163.667969 225.511719 169.484375 229.832031 C 175.050781 233.96875 182.945312 230.273438 181.550781 222.257812 " fill-opacity="1" fill-rule="nonzero"/><path fill="#ffffff" d="M 178.976562 258.914062 C 185.109375 262.753906 191.890625 258.78125 190.316406 252.273438 C 189.207031 247.699219 184.277344 244.273438 179.761719 244.941406 C 179.53125 244.992188 179.222656 245.039062 178.992188 245.101562 C 172.773438 246.761719 172.761719 255.023438 178.976562 258.914062 " fill-opacity="1" fill-rule="nonzero"/><path fill="#ffffff" d="M 105.792969 109.074219 C 101.882812 108.828125 96.542969 120.46875 98.027344 123.882812 C 99.101562 126.355469 102.640625 123.601562 105.039062 118.425781 C 106.507812 115.257812 108.007812 109.917969 105.792969 109.074219 " fill-opacity="1" fill-rule="nonzero"/><path fill="#ffffff" d="M 170.53125 316.304688 C 172.054688 316.175781 171.539062 314.761719 169.277344 312.863281 C 166.199219 310.28125 161.238281 307.925781 158.664062 307.816406 C 158.191406 307.828125 157.746094 307.835938 157.457031 308.109375 C 155.523438 309.929688 166.273438 316.667969 170.53125 316.304688 " fill-opacity="1" fill-rule="nonzero"/><path fill="#ffffff" d="M 118.511719 110.421875 C 114.125 110.710938 109.1875 120.308594 111.179688 124.691406 C 112.765625 128.183594 117.5625 124.9375 119.730469 118.902344 C 120.914062 115.617188 121.316406 110.816406 118.511719 110.421875 " fill-opacity="1" fill-rule="nonzero"/><path fill="#ffffff" d="M 89.636719 121.273438 C 90.214844 122.808594 92.761719 120.085938 95.09375 115.445312 C 96.648438 112.34375 98.476562 107.324219 97.464844 106.386719 C 97.460938 106.382812 97.453125 106.378906 97.449219 106.375 C 95.097656 105.464844 88.457031 118.136719 89.636719 121.273438 " fill-opacity="1" fill-rule="nonzero"/><path fill="#ffffff" d="M 165.507812 182.035156 C 158.777344 183.09375 156.851562 192.921875 162.433594 197.730469 C 167.902344 202.449219 175.324219 197.988281 174.648438 190.390625 C 174.308594 186.59375 171.25 181.492188 165.507812 182.035156 " fill-opacity="1" fill-rule="nonzero"/><path fill="#ffffff" d="M 193.441406 291.496094 C 192.035156 288.097656 187.042969 285.328125 183.171875 285.796875 C 182.816406 285.859375 182.339844 285.949219 182 286.070312 C 177.707031 287.601562 178.78125 293.386719 185.355469 296.175781 C 191.230469 298.664062 195.125 295.558594 193.441406 291.496094 " fill-opacity="1" fill-rule="nonzero"/><path fill="#ffffff" d="M 188.71875 302.636719 C 187.253906 300.402344 182.90625 297.414062 178.546875 297.617188 C 177.761719 297.695312 177.121094 297.914062 176.636719 298.265625 C 173.558594 300.5 178.273438 305.941406 184.394531 307.226562 C 189.097656 308.210938 190.605469 305.519531 188.71875 302.636719 " fill-opacity="1" fill-rule="nonzero"/><path fill="#ffffff" d="M 150.195312 137.5 C 145.125 138.167969 141.457031 146.78125 145.484375 151.722656 C 149.207031 156.28125 155.695312 152.703125 156.335938 145.734375 C 156.667969 142.117188 154.71875 137.246094 150.195312 137.5 " fill-opacity="1" fill-rule="nonzero"/><path fill="#ffffff" d="M 145.285156 132.058594 C 146.078125 127.527344 143.917969 123.640625 140.75 123.902344 C 135.445312 124.792969 132.105469 133.632812 135.414062 138.019531 C 138.578125 142.214844 144.261719 137.933594 145.285156 132.058594 " fill-opacity="1" fill-rule="nonzero"/><path fill="#ffffff" d="M 89.699219 111.726562 C 90.355469 110.507812 93.625 104.359375 93.507812 102.824219 C 93.492188 102.796875 93.476562 102.753906 93.453125 102.734375 C 92.425781 101.976562 85.546875 115.027344 86.089844 116.703125 C 86.304688 117.359375 87.6875 115.453125 89.699219 111.726562 " fill-opacity="1" fill-rule="nonzero"/><path fill="#ffffff" d="M 128.09375 123.847656 C 130.09375 127.332031 135.457031 124.679688 137.113281 118.09375 C 137.863281 115.105469 137.75 110.632812 134.351562 110.570312 C 129.421875 111.230469 125.925781 120.074219 128.09375 123.847656 " fill-opacity="1" fill-rule="nonzero"/><path fill="#ffffff" d="M 162.449219 151.179688 C 156.519531 152.109375 154.136719 161.328125 158.703125 165.6875 C 163.132812 169.917969 170.011719 165.71875 169.851562 158.875 C 169.777344 155.636719 167.703125 150.679688 162.449219 151.179688 " fill-opacity="1" fill-rule="nonzero"/><path fill="#ffffff" d="M 199.921875 277.914062 C 198.507812 274.269531 194.109375 271.785156 190.113281 272.375 C 189.71875 272.453125 189.195312 272.5625 188.816406 272.699219 C 183.804688 274.496094 184.90625 281.015625 190.691406 283.769531 C 196.488281 286.53125 201.925781 283.085938 199.921875 277.914062 " fill-opacity="1" fill-rule="nonzero"/><path fill="#ffffff" d="M 186.410156 312.070312 C 183.945312 309.527344 179.527344 307.589844 176.566406 307.75 C 176.070312 307.800781 175.246094 307.890625 174.78125 308.378906 C 172.804688 310.457031 180.160156 315.671875 185.273438 315.8125 C 188.113281 315.890625 188.59375 314.316406 186.410156 312.070312 " fill-opacity="1" fill-rule="nonzero"/><path fill="#ffffff" d="M 118.203125 96.824219 C 114.949219 96.523438 108.890625 106.207031 110.101562 109.773438 C 110.949219 112.277344 114.703125 110.238281 117.527344 104.648438 C 118.78125 102.164062 120.539062 97.335938 118.203125 96.824219 " fill-opacity="1" fill-rule="nonzero"/><path fill="#ffffff" d="M 175.230469 322.015625 C 175.953125 321.871094 174.867188 320.910156 172.328125 319.453125 C 171.703125 319.09375 166.121094 315.929688 162.589844 315.425781 C 162.222656 315.402344 161.871094 315.382812 161.75 315.5625 C 160.949219 316.757812 172.917969 322.488281 175.230469 322.015625 " fill-opacity="1" fill-rule="nonzero"/><path fill="#ffffff" d="M 208.511719 263.34375 C 207.8125 260.496094 204.65625 256.535156 198.84375 257.296875 C 198.839844 257.296875 198.839844 257.296875 198.839844 257.296875 C 198.839844 257.300781 198.839844 257.300781 198.835938 257.300781 C 198.835938 257.300781 198.832031 257.300781 198.832031 257.300781 C 198.832031 257.300781 198.828125 257.300781 198.828125 257.300781 C 198.828125 257.300781 198.828125 257.300781 198.824219 257.300781 C 197.933594 257.507812 196.082031 257.933594 194.828125 259.628906 C 191.832031 263.679688 195.886719 271.433594 203.710938 270.398438 C 203.710938 270.398438 203.710938 270.398438 203.714844 270.398438 C 203.714844 270.398438 203.714844 270.398438 203.71875 270.398438 C 203.722656 270.398438 203.722656 270.398438 203.722656 270.398438 C 203.722656 270.398438 203.722656 270.398438 203.722656 270.394531 C 203.726562 270.394531 203.726562 270.394531 203.726562 270.394531 C 203.726562 270.394531 203.726562 270.394531 203.730469 270.394531 C 209.726562 269.015625 208.65625 263.921875 208.511719 263.34375 " fill-opacity="1" fill-rule="nonzero"/><path fill="#ffffff" d="M 199.90625 235.332031 C 199.335938 232.0625 196.097656 227.160156 189.847656 227.917969 C 182.566406 229.625 182.601562 238.535156 188.285156 242.273438 C 194.109375 246.097656 201.058594 241.949219 199.90625 235.332031 " fill-opacity="1" fill-rule="nonzero"/><path fill="#ffffff" d="M 182.417969 196.089844 C 175.691406 197.332031 174.273438 206.992188 180.183594 211.292969 C 185.851562 215.414062 192.972656 210.769531 191.910156 203.652344 C 191.289062 199.488281 187.753906 195.421875 182.417969 196.089844 " fill-opacity="1" fill-rule="nonzero"/><path fill="#ffffff" d="M 82.511719 123.03125 C 83.496094 120.675781 85.8125 115.046875 86.101562 113.644531 C 86.109375 113.609375 86.109375 113.5625 86.109375 113.527344 C 86.085938 113.527344 86.050781 113.527344 86.027344 113.527344 C 85.058594 114.722656 79.628906 127.574219 80.082031 128.367188 C 80.226562 128.164062 80.5625 127.695312 82.511719 123.03125 " fill-opacity="1" fill-rule="nonzero"/><path fill="#ffffff" d="M 161.085938 317.828125 C 154.679688 314.503906 152.847656 313.703125 151.902344 313.359375 C 151.902344 313.359375 151.902344 313.359375 151.898438 313.359375 C 151.898438 313.359375 151.898438 313.355469 151.894531 313.355469 C 151.800781 313.328125 151.679688 313.292969 151.585938 313.28125 C 151.578125 313.300781 151.570312 313.332031 151.566406 313.355469 C 152.898438 314.613281 164.097656 320.027344 165.421875 320.230469 C 165.371094 320.121094 165.328125 320.03125 161.085938 317.828125 " fill-opacity="1" fill-rule="nonzero"/><path fill="#ffffff" d="M 100.117188 108.136719 C 100.589844 109.800781 103.199219 108.160156 106.195312 103.144531 C 106.367188 102.851562 110.390625 96.058594 108.652344 94.984375 C 105.660156 94.515625 99.359375 105.464844 100.117188 108.136719 " fill-opacity="1" fill-rule="nonzero"/><path fill="#ffffff" d="M 187.585938 322.378906 C 187.589844 322.378906 187.589844 322.378906 187.589844 322.378906 C 187.59375 322.378906 187.59375 322.378906 187.59375 322.378906 C 187.695312 322.371094 187.832031 322.371094 187.933594 322.359375 C 189.367188 322.191406 188.976562 321.144531 186.941406 319.6875 C 184.058594 317.628906 179.730469 315.976562 177.292969 316.003906 C 176.859375 316.035156 176.410156 316.0625 176.125 316.296875 C 174.574219 317.585938 182.46875 322.277344 187.585938 322.378906 " fill-opacity="1" fill-rule="nonzero"/><path fill="#ffffff" d="M 131.15625 97.417969 C 130.664062 97.46875 129.925781 97.546875 128.675781 98.5625 C 124.203125 102.195312 121.6875 110.820312 125.914062 111.128906 C 125.914062 111.128906 125.917969 111.128906 125.917969 111.128906 C 125.921875 111.128906 125.921875 111.128906 125.921875 111.128906 C 125.921875 111.128906 125.925781 111.128906 125.925781 111.128906 C 129.421875 110.769531 131.707031 105.585938 131.953125 104.996094 C 133.5 101.339844 133.546875 97.421875 131.15625 97.417969 " fill-opacity="1" fill-rule="nonzero"/><path fill="#ffffff" d="M 103.0625 92.011719 C 101.949219 91.753906 93.585938 102.835938 94.707031 105.109375 C 94.707031 105.109375 94.707031 105.109375 94.710938 105.109375 C 94.710938 105.109375 94.710938 105.109375 94.710938 105.113281 C 95.679688 105.671875 99.058594 100.546875 99.4375 99.957031 C 100.644531 98.105469 103.667969 93.082031 103.171875 92.074219 C 103.136719 92.054688 103.097656 92.023438 103.0625 92.011719 " fill-opacity="1" fill-rule="nonzero"/><path fill="#ffffff" d="M 177.191406 164.714844 C 169.976562 166.410156 169.835938 175.4375 174.105469 179.050781 C 178.542969 182.804688 185.96875 179.417969 185.476562 172.21875 C 185.144531 167.34375 181.425781 163.976562 177.191406 164.714844 " fill-opacity="1" fill-rule="nonzero"/><path fill="#ffffff" d="M 193.953125 178 C 187.964844 179.558594 186.234375 187.246094 190.917969 191.488281 C 196.316406 196.378906 203.285156 191.515625 202.734375 185.148438 C 202.4375 181.679688 199.21875 177.269531 193.953125 178 " fill-opacity="1" fill-rule="nonzero"/><path fill="#ffffff" d="M 210.3125 216.875 C 209.699219 212.328125 205.074219 208.828125 200.792969 209.664062 C 194.640625 211.289062 193.175781 219.304688 198.261719 223.503906 C 204.261719 228.449219 211.195312 223.457031 210.3125 216.875 " fill-opacity="1" fill-rule="nonzero"/><path fill="#ffffff" d="M 218.316406 246.78125 C 217.574219 242.84375 213.03125 239.882812 208.964844 240.691406 C 202.925781 242.269531 201.769531 249.40625 206.964844 253.011719 C 212.902344 257.128906 219.398438 252.511719 218.316406 246.78125 " fill-opacity="1" fill-rule="nonzero"/><path fill="#ffffff" d="M 112.351562 95.34375 C 112.648438 97.472656 116.101562 94.683594 118.722656 90.90625 C 120.601562 88.195312 122.515625 84.164062 121.21875 83.640625 C 118.460938 83.546875 111.914062 92.183594 112.351562 95.34375 " fill-opacity="1" fill-rule="nonzero"/><path fill="#ffffff" d="M 210.75 299.640625 C 209.636719 296.902344 205.222656 294.703125 201.835938 295.203125 C 201.519531 295.265625 201.09375 295.355469 200.792969 295.464844 C 197.203125 296.777344 197.6875 301.226562 202.882812 303.492188 C 208.195312 305.808594 212.167969 303.132812 210.75 299.640625 " fill-opacity="1" fill-rule="nonzero"/><path fill="#ffffff" d="M 169.34375 321.226562 C 169.25 321.214844 169.121094 321.199219 169.027344 321.199219 C 169.011719 321.222656 169 321.253906 168.988281 321.277344 C 170.125 322.394531 180.003906 325.851562 182.25 326.195312 C 182.273438 326.175781 182.300781 326.148438 182.324219 326.128906 C 181.945312 325.890625 180.632812 325.324219 178.417969 324.445312 C 177.722656 324.167969 171.558594 321.730469 169.34375 321.226562 " fill-opacity="1" fill-rule="nonzero"/><path fill="#ffffff" d="M 123.347656 96.21875 C 124.089844 98.53125 127.730469 96.117188 130.300781 91.605469 C 131.699219 89.152344 133.171875 85.128906 131.175781 84.785156 C 127.917969 85.015625 122.355469 93.136719 123.347656 96.21875 " fill-opacity="1" fill-rule="nonzero"/><path fill="#ffffff" d="M 192.554688 327.078125 C 193.105469 326.757812 190.753906 325.628906 190.023438 325.289062 C 187.195312 323.984375 182.910156 322.523438 180.910156 322.4375 C 180.59375 322.441406 180.261719 322.445312 180.164062 322.609375 C 179.457031 323.777344 191.035156 327.953125 192.554688 327.078125 " fill-opacity="1" fill-rule="nonzero"/><path fill="#ffffff" d="M 161.996094 121.90625 C 156.992188 123.019531 154.515625 130.695312 157.921875 134.539062 C 161.238281 138.277344 167.042969 134.808594 167.476562 128.828125 C 167.773438 124.75 165.160156 121.449219 161.996094 121.90625 " fill-opacity="1" fill-rule="nonzero"/><path fill="#ffffff" d="M 152.75 109.257812 C 148.285156 110.152344 145.28125 117.460938 147.804688 121.292969 C 150.292969 125.074219 155.71875 121.949219 156.730469 116.152344 C 157.417969 112.226562 155.523438 108.941406 152.75 109.257812 " fill-opacity="1" fill-rule="nonzero"/><path fill="#ffffff" d="M 201.417969 313.617188 C 205.804688 314.53125 207.546875 312.332031 205.894531 309.886719 C 204.308594 307.546875 200.105469 305.746094 197.078125 306.109375 C 196.503906 306.210938 195.960938 306.304688 195.402344 306.6875 C 192.738281 308.519531 196.222656 312.535156 201.417969 313.617188 " fill-opacity="1" fill-rule="nonzero"/><path fill="#ffffff" d="M 105.417969 93.09375 C 105.613281 94.253906 107.941406 92.347656 110.714844 88.746094 C 110.761719 88.683594 115.417969 82.617188 114.539062 81.640625 C 112.699219 81.136719 105.027344 90.769531 105.417969 93.09375 " fill-opacity="1" fill-rule="nonzero"/><path fill="#ffffff" d="M 202.363281 321.277344 C 204.839844 321.246094 205.292969 319.984375 203.445312 318.277344 C 201.980469 316.925781 198.507812 314.984375 194.949219 315.1875 C 194.523438 315.230469 193.742188 315.363281 193.339844 315.765625 C 191.574219 317.523438 197.816406 321.339844 202.363281 321.277344 " fill-opacity="1" fill-rule="nonzero"/><path fill="#ffffff" d="M 146.566406 96.921875 C 142.691406 97.304688 138.945312 105.066406 141 108.449219 C 142.6875 111.234375 147.363281 108.882812 148.878906 103.4375 C 149.617188 100.78125 149.609375 96.855469 146.566406 96.921875 " fill-opacity="1" fill-rule="nonzero"/><path fill="#ffffff" d="M 174.09375 134.742188 C 168.875 135.679688 166.753906 143.648438 170.703125 147.46875 C 174.296875 150.941406 180.871094 147.886719 180.691406 141.382812 C 180.609375 138.402344 178.785156 134.175781 174.09375 134.742188 " fill-opacity="1" fill-rule="nonzero"/><path fill="#ffffff" d="M 217.472656 287.085938 C 216.734375 284.996094 213.746094 281.933594 208.867188 282.59375 C 208.519531 282.660156 207.996094 282.78125 207.472656 283.003906 C 203.375 284.726562 204.171875 289.890625 208.875 292.054688 C 213.847656 294.34375 218.992188 291.375 217.472656 287.085938 " fill-opacity="1" fill-rule="nonzero"/><path fill="#ffffff" d="M 96.792969 96.03125 C 98.769531 93.15625 101.195312 89.5 101.519531 88.417969 C 101.507812 88.386719 101.488281 88.339844 101.476562 88.308594 C 100.316406 88.703125 93.34375 99.1875 93.625 100.117188 C 93.753906 100.070312 94.101562 99.949219 96.792969 96.03125 " fill-opacity="1" fill-rule="nonzero"/><path fill="#ffffff" d="M 106.582031 85.601562 C 106.632812 85.542969 111.390625 79.808594 111.398438 78.730469 C 111.382812 78.710938 111.363281 78.691406 111.351562 78.675781 C 110 78.613281 101.867188 88.671875 102.558594 89.546875 C 103.15625 89.59375 105.335938 87.097656 106.582031 85.601562 " fill-opacity="1" fill-rule="nonzero"/><path fill="#ffffff" d="M 187.496094 327.089844 C 187.183594 327.070312 187.183594 327.070312 187.101562 327.148438 C 187.835938 327.871094 198.265625 330.445312 199.230469 330.144531 C 199.101562 330.074219 198.890625 329.953125 195.941406 329.132812 C 191.699219 327.957031 188.855469 327.269531 187.496094 327.089844 " fill-opacity="1" fill-rule="nonzero"/><path fill="#ffffff" d="M 212.226562 191.195312 C 206.511719 192.523438 205.035156 200.226562 209.761719 204.074219 C 214.835938 208.207031 221.792969 204.109375 220.867188 197.53125 C 220.425781 194.363281 217.449219 190.304688 212.226562 191.195312 " fill-opacity="1" fill-rule="nonzero"/><path fill="#ffffff" d="M 221.710938 279.21875 C 221.714844 279.21875 221.714844 279.21875 221.714844 279.21875 C 221.71875 279.21875 221.71875 279.21875 221.722656 279.21875 C 221.726562 279.21875 221.726562 279.21875 221.730469 279.21875 C 221.730469 279.21875 221.730469 279.214844 221.734375 279.214844 C 221.734375 279.214844 221.738281 279.214844 221.738281 279.214844 C 221.738281 279.214844 221.742188 279.214844 221.742188 279.214844 C 227.078125 277.882812 226.242188 273.585938 226.128906 273.097656 C 225.570312 270.722656 222.878906 267.480469 217.730469 268.292969 C 215.703125 268.710938 214.617188 269.785156 214.148438 270.386719 C 211.199219 274.191406 215.292969 280.199219 221.707031 279.222656 C 221.707031 279.222656 221.710938 279.222656 221.710938 279.21875 " fill-opacity="1" fill-rule="nonzero"/><path fill="#ffffff" d="M 143.628906 84.867188 C 140.488281 85.085938 136.179688 92.097656 137.21875 95.285156 C 138.089844 97.945312 142.089844 96.058594 144.265625 90.972656 C 145.261719 88.648438 145.964844 84.9375 143.628906 84.867188 " fill-opacity="1" fill-rule="nonzero"/><path fill="#ffffff" d="M 117.933594 81.453125 C 117.890625 82.789062 120.496094 80.980469 123.5 77.578125 C 125.046875 75.832031 128 72.039062 127.246094 71.472656 C 125.3125 71.277344 118 79.113281 117.933594 81.453125 " fill-opacity="1" fill-rule="nonzero"/><path fill="#ffffff" d="M 204.925781 326.703125 C 205.824219 326.433594 205.28125 325.621094 203.542969 324.636719 C 202.082031 323.804688 198.527344 322.257812 195.542969 322.324219 C 195.539062 322.324219 195.539062 322.324219 195.539062 322.324219 C 195.539062 322.324219 195.535156 322.324219 195.535156 322.324219 C 195.53125 322.324219 195.53125 322.328125 195.53125 322.328125 C 195.53125 322.328125 195.527344 322.328125 195.527344 322.328125 C 195.527344 322.328125 195.523438 322.328125 195.523438 322.328125 C 195.523438 322.328125 195.523438 322.328125 195.519531 322.328125 C 195.167969 322.363281 194.574219 322.421875 194.375 322.726562 C 193.371094 324.230469 202.148438 327.542969 204.925781 326.703125 " fill-opacity="1" fill-rule="nonzero"/><path fill="#ffffff" d="M 188.664062 147.496094 C 188.660156 147.496094 188.660156 147.496094 188.660156 147.496094 C 188.65625 147.496094 188.65625 147.496094 188.652344 147.496094 C 188.652344 147.496094 188.652344 147.496094 188.648438 147.496094 C 188.648438 147.496094 188.648438 147.496094 188.644531 147.5 C 188.644531 147.5 188.644531 147.5 188.640625 147.5 C 188.640625 147.5 188.640625 147.5 188.636719 147.5 C 188.636719 147.5 188.632812 147.5 188.632812 147.5 C 188.632812 147.5 188.628906 147.5 188.628906 147.5 C 182.238281 149.222656 182.289062 157.339844 186.171875 160.308594 C 190.578125 163.683594 196.605469 159.761719 196.089844 153.851562 C 195.839844 151.007812 193.605469 146.765625 188.664062 147.496094 " fill-opacity="1" fill-rule="nonzero"/><path fill="#ffffff" d="M 180.472656 325.886719 L 180.882812 326.007812 C 180.578125 325.914062 180.265625 325.824219 179.96875 325.730469 L 180.472656 325.886719 " fill-opacity="1" fill-rule="nonzero"/><path fill="#ffffff" d="M 228.746094 228.757812 C 227.992188 224.734375 223.996094 222.070312 220.023438 222.949219 C 213.589844 224.753906 213.308594 232.433594 218.140625 235.5625 C 223.320312 238.914062 229.863281 234.714844 228.746094 228.757812 " fill-opacity="1" fill-rule="nonzero"/><path fill="#ffffff" d="M 125.886719 82.957031 C 126.210938 84.554688 129.28125 82.46875 132.082031 78.742188 C 133.410156 76.976562 135.722656 73.210938 134.382812 72.847656 C 132.265625 72.664062 125.324219 80.199219 125.886719 82.957031 " fill-opacity="1" fill-rule="nonzero"/><path fill="#ffffff" d="M 236.175781 257.484375 C 235.820312 254.445312 232.375 251.578125 227.992188 252.328125 C 222.933594 253.734375 221.492188 259.296875 225.375 262.417969 C 230.296875 266.371094 236.757812 262.519531 236.175781 257.484375 " fill-opacity="1" fill-rule="nonzero"/><path fill="#ffffff" d="M 208.949219 330.394531 C 209.371094 330.160156 207.46875 329.476562 206.878906 329.269531 C 204.453125 328.433594 200.597656 327.511719 198.945312 327.53125 C 198.703125 327.542969 198.296875 327.566406 198.296875 327.757812 C 198.289062 328.71875 207.75 331.058594 208.949219 330.394531 " fill-opacity="1" fill-rule="nonzero"/><path fill="#ffffff" d="M 205.34375 160.039062 C 205.34375 160.039062 205.339844 160.039062 205.339844 160.039062 C 205.339844 160.039062 205.335938 160.039062 205.335938 160.039062 C 205.332031 160.039062 205.332031 160.042969 205.332031 160.042969 C 205.332031 160.042969 205.328125 160.042969 205.328125 160.042969 C 205.328125 160.042969 205.324219 160.042969 205.324219 160.042969 C 205.324219 160.042969 205.320312 160.042969 205.320312 160.042969 C 205.316406 160.042969 205.316406 160.046875 205.316406 160.046875 C 205.3125 160.046875 205.3125 160.046875 205.3125 160.046875 C 199.738281 161.664062 198.578125 169.296875 203.398438 172.613281 C 208.453125 176.085938 213.980469 171.296875 213.1875 165.878906 C 212.761719 162.976562 209.796875 159.328125 205.34375 160.039062 " fill-opacity="1" fill-rule="nonzero"/><path fill="#ffffff" d="M 136.917969 83 C 137.460938 84.847656 140.703125 82.6875 143.007812 78.949219 C 144.074219 77.210938 145.710938 73.5625 143.964844 73.347656 C 141.109375 73.699219 136.171875 80.460938 136.917969 83 " fill-opacity="1" fill-rule="nonzero"/><path fill="#ffffff" d="M 113.714844 78.960938 C 113.71875 78.960938 113.71875 78.960938 113.71875 78.960938 C 113.71875 78.960938 113.71875 78.960938 113.71875 78.964844 C 114.402344 79.25 117.5625 76.070312 118.515625 75.089844 C 118.707031 74.890625 123.230469 70.21875 123.007812 69.410156 C 122.988281 69.398438 122.957031 69.378906 122.933594 69.371094 C 122 69.214844 113.070312 77.359375 113.714844 78.960938 " fill-opacity="1" fill-rule="nonzero"/><path fill="#ffffff" d="M 226.679688 306.289062 C 225.945312 304.707031 223.246094 302.707031 219.550781 303.214844 C 219.03125 303.3125 218.507812 303.488281 218.117188 303.695312 C 215.359375 305.179688 216.5625 308.507812 220.339844 309.839844 C 224.359375 311.257812 228.03125 309.199219 226.679688 306.289062 " fill-opacity="1" fill-rule="nonzero"/><path fill="#ffffff" d="M 169.847656 117.539062 C 172.777344 120.707031 177.761719 117.4375 177.8125 112.3125 C 177.835938 109.84375 176.382812 106.539062 173.078125 106.917969 C 169.023438 107.671875 166.972656 114.421875 169.847656 117.539062 " fill-opacity="1" fill-rule="nonzero"/><path fill="#ffffff" d="M 217.679688 318.6875 C 221.121094 319.3125 223.195312 317.835938 221.785156 315.757812 C 220.558594 313.949219 217.222656 312.695312 214.644531 313.074219 C 214.230469 313.152344 213.53125 313.289062 213.007812 313.707031 C 211.148438 315.183594 213.769531 317.980469 217.679688 318.6875 " fill-opacity="1" fill-rule="nonzero"/><path fill="#ffffff" d="M 164.011719 95.316406 C 159.933594 96.214844 158.003906 103.011719 160.269531 105.605469 C 162.363281 108.003906 166.761719 105.609375 167.40625 100.703125 C 167.78125 97.824219 166.59375 94.945312 164.011719 95.316406 " fill-opacity="1" fill-rule="nonzero"/><path fill="#ffffff" d="M 233.726562 294.824219 C 233.152344 293.128906 230.816406 290.847656 226.738281 291.511719 C 226.542969 291.554688 226.121094 291.667969 226.117188 291.667969 C 221.964844 292.929688 222.433594 297.136719 225.878906 298.929688 C 230.070312 301.113281 234.984375 298.542969 233.726562 294.824219 " fill-opacity="1" fill-rule="nonzero"/><path fill="#ffffff" d="M 158.066406 83.972656 C 154.9375 84.371094 151.855469 90.753906 153.488281 93.457031 C 154.851562 95.710938 158.679688 93.765625 159.941406 89.316406 C 160.574219 87.09375 160.59375 83.835938 158.066406 83.972656 " fill-opacity="1" fill-rule="nonzero"/><path fill="#ffffff" d="M 185.019531 118.800781 C 179.808594 120.160156 179.527344 127.070312 182.53125 129.660156 C 185.644531 132.34375 190.988281 129.65625 190.738281 124.328125 C 190.570312 120.699219 188.003906 118.21875 185.019531 118.800781 " fill-opacity="1" fill-rule="nonzero"/><path fill="#ffffff" d="M 218.253906 325.246094 C 220.210938 325.121094 220.601562 324.210938 219.195312 323.03125 C 217.726562 321.792969 214.753906 320.691406 212.328125 320.988281 C 211.953125 321.046875 211.328125 321.148438 210.980469 321.476562 C 209.535156 322.835938 214.632812 325.476562 218.253906 325.246094 " fill-opacity="1" fill-rule="nonzero"/><path fill="#ffffff" d="M 220.28125 329.578125 C 220.984375 329.367188 220.609375 328.859375 219.304688 328.253906 C 217.914062 327.613281 215.011719 326.707031 212.710938 326.855469 C 212.359375 326.886719 211.90625 326.976562 211.765625 327.191406 C 211.082031 328.234375 218.167969 330.21875 220.28125 329.578125 " fill-opacity="1" fill-rule="nonzero"/><path fill="#ffffff" d="M 139.871094 71.015625 C 140.121094 72.148438 142.675781 70.457031 145.121094 67.535156 C 147.046875 65.242188 148.464844 62.726562 147.5 62.640625 C 145.238281 62.84375 139.464844 69.179688 139.871094 71.015625 " fill-opacity="1" fill-rule="nonzero"/><g clip-path="url(#e7f80d11f8)"><path fill="#ffffff" d="M 205.382812 330.863281 C 205.117188 330.859375 205.117188 330.859375 205.050781 330.917969 C 205.746094 331.355469 214.703125 332.546875 215.359375 332.285156 C 215.128906 332.226562 214.820312 332.179688 212.4375 331.816406 C 208.675781 331.242188 206.601562 330.925781 205.382812 330.863281 " fill-opacity="1" fill-rule="nonzero"/></g><path fill="#ffffff" d="M 155.808594 77.957031 C 156.902344 75.519531 157.011719 72.886719 155.414062 73.007812 C 152.589844 73.527344 149.0625 79.425781 150.171875 81.777344 C 151.074219 83.683594 154.179688 81.578125 155.808594 77.957031 " fill-opacity="1" fill-rule="nonzero"/><path fill="#ffffff" d="M 126.582031 68.511719 C 126.445312 69.289062 128.539062 67.929688 131.457031 65.355469 C 131.503906 65.3125 136.324219 61.011719 135.976562 60.441406 C 134.683594 60.203125 126.871094 66.917969 126.582031 68.511719 " fill-opacity="1" fill-rule="nonzero"/><path fill="#ffffff" d="M 231.429688 204.203125 C 225.355469 206.035156 225.601562 213.054688 229.1875 215.9375 C 233.378906 219.308594 240.292969 216.214844 239.398438 209.910156 C 238.820312 205.828125 235.246094 203.265625 231.429688 204.203125 " fill-opacity="1" fill-rule="nonzero"/><path fill="#ffffff" d="M 140.570312 61.898438 C 138.703125 61.863281 131.601562 68.613281 131.734375 70.296875 C 131.804688 71.171875 133.894531 70.070312 137.15625 66.757812 C 137.332031 66.578125 141.484375 62.347656 140.570312 61.898438 " fill-opacity="1" fill-rule="nonzero"/><path fill="#ffffff" d="M 239.199219 235.148438 C 233.738281 236.53125 233.09375 242.988281 236.953125 245.722656 C 241.273438 248.78125 247.519531 245.140625 246.785156 239.996094 C 246.441406 237.601562 244.078125 234.171875 239.199219 235.148438 " fill-opacity="1" fill-rule="nonzero"/><path fill="#ffffff" d="M 111.542969 75.1875 C 111.558594 75.160156 111.554688 75.117188 111.558594 75.089844 C 110.683594 75.480469 103.613281 83.839844 103.597656 84.503906 C 103.796875 84.378906 104.324219 83.820312 106.640625 81.125 C 110.429688 76.707031 111.242188 75.6875 111.542969 75.1875 " fill-opacity="1" fill-rule="nonzero"/><path fill="#ffffff" d="M 223.546875 172.664062 C 217.425781 174.527344 217.933594 181.824219 221.878906 184.449219 C 226.441406 187.480469 232.125 183.621094 231.234375 178.089844 C 230.625 174.28125 227.101562 171.796875 223.546875 172.664062 " fill-opacity="1" fill-rule="nonzero"/><path fill="#ffffff" d="M 199.476562 130.625 C 194.363281 132.089844 193.929688 138.863281 197.660156 141.570312 C 201.5625 144.398438 206.671875 140.789062 205.9375 135.714844 C 205.601562 133.390625 203.550781 129.949219 199.476562 130.625 " fill-opacity="1" fill-rule="nonzero"/><path fill="#ffffff" d="M 242.621094 281.683594 C 242.152344 279.371094 239.585938 277.289062 235.757812 277.992188 C 231.042969 279.085938 230.542969 283.765625 233.777344 285.992188 C 237.683594 288.6875 243.472656 285.867188 242.621094 281.683594 " fill-opacity="1" fill-rule="nonzero"/><path fill="#ffffff" d="M 116.683594 71.945312 C 116.730469 71.902344 121.398438 67.410156 121.703125 66.621094 C 121.703125 66.621094 121.703125 66.621094 121.691406 66.578125 C 120.6875 66.539062 112.738281 74.285156 112.921875 75.121094 C 113.277344 75.15625 115.433594 73.144531 116.683594 71.945312 " fill-opacity="1" fill-rule="nonzero"/><path fill="#ffffff" d="M 214.71875 153.125 C 219.109375 156 223.675781 151.863281 222.851562 147.28125 C 222.421875 144.898438 219.960938 141.710938 216.039062 142.453125 C 211.78125 143.539062 210.257812 150.203125 214.71875 153.125 " fill-opacity="1" fill-rule="nonzero"/><path fill="#ffffff" d="M 252.808594 266.652344 C 252.488281 264.246094 249.882812 262.105469 246.21875 262.832031 C 242.269531 263.832031 240.25 268.609375 243.796875 271.265625 C 247.875 274.316406 253.351562 270.769531 252.808594 266.652344 " fill-opacity="1" fill-rule="nonzero"/><g clip-path="url(#04ef341ce4)"><path fill="#ffffff" d="M 216.027344 330.730469 C 215.636719 330.765625 215.527344 330.796875 215.496094 330.898438 C 215.859375 331.617188 223.085938 332.40625 224.011719 332.054688 C 224.015625 332.035156 224.019531 332.007812 224.023438 331.988281 C 223.945312 331.9375 223.75 331.789062 221.980469 331.441406 C 221.324219 331.308594 217.941406 330.660156 216.027344 330.730469 " fill-opacity="1" fill-rule="nonzero"/></g><path fill="#ffffff" d="M 150.136719 70.304688 C 150.390625 71.773438 152.855469 70.464844 155.03125 67.117188 C 156.417969 64.988281 157.195312 62.714844 156.039062 62.753906 C 153.941406 63.070312 149.808594 68.363281 150.136719 70.304688 " fill-opacity="1" fill-rule="nonzero"/><path fill="#ffffff" d="M 128.589844 63.078125 C 130.386719 61.625 133.421875 59.105469 133.558594 58.542969 C 133.007812 58.046875 124.746094 64.71875 124.632812 65.75 C 124.703125 65.824219 124.917969 66.042969 128.589844 63.078125 " fill-opacity="1" fill-rule="nonzero"/><path fill="#ffffff" d="M 180.835938 101.207031 C 183.066406 103.351562 186.988281 101.222656 186.871094 96.976562 C 186.828125 95.324219 185.949219 92.304688 182.960938 92.734375 C 179.527344 93.457031 178.59375 99.058594 180.835938 101.207031 " fill-opacity="1" fill-rule="nonzero"/><path fill="#ffffff" d="M 235.71875 309.855469 C 235.5 309.90625 235.203125 309.976562 234.988281 310.054688 C 232.304688 311.019531 232.902344 313.492188 235.289062 314.566406 C 238.023438 315.800781 241.90625 314.507812 241.015625 312.0625 C 240.589844 310.894531 238.832031 309.34375 235.71875 309.855469 " fill-opacity="1" fill-rule="nonzero"/><path fill="#ffffff" d="M 176.855469 86.386719 C 177.101562 84.039062 176.132812 81.816406 174.089844 82.152344 C 170.933594 82.921875 169.59375 88.167969 171.386719 90.21875 C 173.070312 92.144531 176.453125 90.277344 176.855469 86.386719 " fill-opacity="1" fill-rule="nonzero"/><path fill="#ffffff" d="M 232.167969 322.441406 C 234.71875 322.914062 236.980469 321.960938 235.886719 320.304688 C 235 318.957031 232.675781 318.183594 230.605469 318.546875 C 230.269531 318.617188 229.710938 318.738281 229.277344 319.042969 C 227.84375 320.0625 229.4375 321.9375 232.167969 322.441406 " fill-opacity="1" fill-rule="nonzero"/><path fill="#ffffff" d="M 248.3125 301.582031 C 247.992188 300.269531 246.328125 298.546875 243.046875 299.160156 C 239.164062 300.191406 239.363281 303.394531 241.683594 304.742188 C 244.742188 306.519531 249.019531 304.480469 248.3125 301.582031 " fill-opacity="1" fill-rule="nonzero"/><path fill="#ffffff" d="M 242.726562 185.136719 C 237.40625 186.617188 237.660156 193.179688 240.988281 195.65625 C 244.757812 198.460938 250.800781 195.304688 249.738281 189.78125 C 249.34375 187.722656 247.367188 184.101562 242.726562 185.136719 " fill-opacity="1" fill-rule="nonzero"/><path fill="#ffffff" d="M 154.027344 52.964844 C 152.417969 53.054688 146.179688 58.347656 146.171875 59.632812 C 146.167969 60.277344 147.859375 59.429688 150.691406 56.894531 C 150.730469 56.859375 154.765625 53.234375 154.027344 52.964844 " fill-opacity="1" fill-rule="nonzero"/><path fill="#ffffff" d="M 140.824219 58.65625 C 140.773438 59.191406 142.578125 58.144531 145.3125 56.039062 C 145.75 55.703125 149.585938 52.738281 149.636719 52.144531 C 149.625 52.132812 149.609375 52.117188 149.597656 52.105469 C 148.386719 52.03125 140.925781 57.601562 140.824219 58.65625 " fill-opacity="1" fill-rule="nonzero"/><path fill="#ffffff" d="M 248.742188 226.929688 C 252.371094 229.585938 258.394531 226.652344 257.644531 221.363281 C 257.351562 219.316406 255.542969 215.71875 250.78125 216.789062 C 244.992188 218.675781 245.875 224.828125 248.742188 226.929688 " fill-opacity="1" fill-rule="nonzero"/><path fill="#ffffff" d="M 193.179688 112.230469 C 196.109375 114.644531 200.113281 111.765625 199.570312 107.636719 C 199.324219 105.773438 197.796875 103 194.746094 103.511719 C 191.289062 104.3125 190.292969 109.855469 193.179688 112.230469 " fill-opacity="1" fill-rule="nonzero"/><path fill="#ffffff" d="M 263.746094 249.851562 C 263.378906 247.203125 260.464844 245.480469 257.632812 246.230469 C 253.433594 247.597656 252.078125 252.398438 255.222656 254.796875 C 259.058594 257.722656 264.316406 253.933594 263.746094 249.851562 " fill-opacity="1" fill-rule="nonzero"/><path fill="#ffffff" d="M 232.683594 327.835938 C 233.902344 327.628906 234.066406 326.996094 233.085938 326.296875 C 232.28125 325.71875 230.199219 324.90625 228.042969 325.167969 C 227.335938 325.277344 227.039062 325.492188 226.914062 325.65625 C 226.074219 326.742188 230.117188 328.273438 232.683594 327.835938 " fill-opacity="1" fill-rule="nonzero"/><path fill="#ffffff" d="M 164.996094 79.257812 C 166.101562 81.160156 168.96875 79.277344 169.867188 76.058594 C 170.464844 73.917969 170 71.679688 168.378906 71.898438 C 165.917969 72.464844 163.769531 77.144531 164.996094 79.257812 " fill-opacity="1" fill-rule="nonzero"/><path fill="#ffffff" d="M 252.277344 286.542969 C 249.042969 287.507812 247.777344 290.699219 249.902344 292.53125 C 252.898438 295.117188 257.6875 292.578125 257.46875 289.394531 C 257.328125 287.355469 254.757812 285.941406 252.277344 286.542969 " fill-opacity="1" fill-rule="nonzero"/><path fill="#ffffff" d="M 211.445312 123.882812 C 211.445312 123.882812 211.445312 123.882812 211.449219 123.882812 C 211.449219 123.882812 211.453125 123.882812 211.453125 123.878906 C 211.453125 123.882812 211.453125 123.878906 211.453125 123.878906 C 211.453125 123.878906 211.453125 123.878906 211.457031 123.878906 C 211.457031 123.878906 211.457031 123.878906 211.460938 123.878906 C 214.214844 122.984375 214.835938 120.207031 214.578125 118.558594 C 214.15625 115.835938 211.488281 113.8125 209.09375 114.386719 C 208.605469 114.542969 207.597656 114.863281 206.757812 116.171875 C 204.425781 119.8125 207.359375 124.640625 211.445312 123.882812 " fill-opacity="1" fill-rule="nonzero"/><path fill="#ffffff" d="M 232.753906 163.984375 C 236.992188 167.179688 241.695312 163.300781 240.859375 158.769531 C 240.363281 156.066406 237.683594 153.585938 234.222656 154.296875 C 230.035156 155.679688 229.183594 161.296875 232.753906 163.984375 " fill-opacity="1" fill-rule="nonzero"/><path fill="#ffffff" d="M 137.988281 56.910156 C 138.367188 57.027344 141.019531 55.257812 142.140625 54.492188 C 142.1875 54.460938 146.828125 51.277344 146.957031 50.78125 C 146.058594 50.5625 137.925781 56.117188 137.988281 56.910156 " fill-opacity="1" fill-rule="nonzero"/><path fill="#ffffff" d="M 166 62.148438 C 164.148438 62.558594 161.304688 66.855469 162.035156 68.773438 C 162.679688 70.472656 165.222656 68.277344 166.332031 65.609375 C 167.046875 63.890625 167.058594 62.042969 166 62.148438 " fill-opacity="1" fill-rule="nonzero"/><path fill="#ffffff" d="M 159.980469 53.25 C 158.695312 53.285156 153.542969 58.136719 153.574219 59.707031 C 153.59375 60.710938 155.898438 59.015625 157.792969 56.941406 C 158.914062 55.714844 160.707031 53.371094 159.980469 53.25 " fill-opacity="1" fill-rule="nonzero"/><path fill="#ffffff" d="M 233.089844 330.289062 C 231.828125 329.875 229.484375 329.527344 228.230469 329.679688 C 228.003906 329.71875 227.617188 329.777344 227.558594 329.964844 C 227.292969 330.8125 232.894531 331.460938 233.921875 330.992188 C 234.332031 330.804688 233.761719 330.503906 233.089844 330.289062 " fill-opacity="1" fill-rule="nonzero"/><path fill="#ffffff" d="M 123.144531 63.328125 C 123.15625 63.308594 123.171875 63.28125 123.183594 63.261719 C 122.644531 63.5 116.027344 69.5625 115.683594 70.304688 C 115.804688 70.214844 115.804688 70.214844 118.539062 67.675781 C 122.035156 64.421875 122.867188 63.648438 123.144531 63.328125 " fill-opacity="1" fill-rule="nonzero"/><path fill="#ffffff" d="M 128.628906 60.011719 C 132.933594 56.730469 133.253906 56.351562 133.492188 56.074219 C 133.035156 55.828125 125.636719 61.484375 125.582031 62.128906 C 125.652344 62.136719 125.824219 62.148438 128.628906 60.011719 " fill-opacity="1" fill-rule="nonzero"/><path fill="#ffffff" d="M 155.757812 49.4375 C 155.941406 49.664062 157.074219 49.039062 159.8125 47.210938 C 160.390625 46.824219 163.285156 44.875 163.417969 44.507812 C 163.410156 44.5 163.398438 44.492188 163.390625 44.484375 C 162.847656 44.414062 155.863281 48.507812 155.757812 49.4375 " fill-opacity="1" fill-rule="nonzero"/><path fill="#ffffff" d="M 267.761719 275.359375 C 267.761719 275.3125 267.546875 271.160156 262.953125 272.398438 C 257.664062 274.015625 259.953125 278.246094 260.453125 278.757812 C 262.164062 280.507812 267.523438 279.578125 267.761719 275.359375 " fill-opacity="1" fill-rule="nonzero"/><path fill="#ffffff" d="M 166.882812 53.195312 C 165.472656 53.476562 162.296875 57.433594 162.46875 58.695312 C 162.597656 59.652344 164.410156 58.613281 165.929688 56.375 C 166.296875 55.832031 168.074219 53.132812 166.882812 53.195312 " fill-opacity="1" fill-rule="nonzero"/><g clip-path="url(#c14ba014b5)"><path fill="#ffffff" d="M 235.675781 332.121094 C 233.320312 332.023438 232.265625 332.007812 231.488281 332.074219 C 231.089844 332.109375 231.074219 332.136719 231.050781 332.183594 C 231.578125 332.484375 236.515625 332.410156 237.226562 332.230469 C 237.183594 332.199219 237.164062 332.1875 235.675781 332.121094 " fill-opacity="1" fill-rule="nonzero"/></g><path fill="#ffffff" d="M 267.410156 236.640625 C 268.117188 237.171875 270.058594 238.207031 272.820312 236.386719 C 273.726562 235.792969 275.191406 234.398438 274.816406 231.761719 C 274.324219 228.3125 271.546875 227.84375 269.320312 228.492188 C 264.824219 230.070312 265.289062 235.050781 267.410156 236.640625 " fill-opacity="1" fill-rule="nonzero"/><path fill="#ffffff" d="M 260.453125 206.65625 C 262.652344 208.480469 268.796875 207.441406 268.183594 201.527344 C 268.175781 201.476562 267.390625 196.171875 262.226562 197.488281 C 256.714844 199.144531 258.605469 205.125 260.453125 206.65625 " fill-opacity="1" fill-rule="nonzero"/><path fill="#ffffff" d="M 252.3125 174.972656 C 252.738281 175.261719 254.984375 176.617188 257.542969 174.84375 C 258.660156 174.066406 259.882812 172.617188 259.339844 170.105469 C 258.636719 166.847656 256.304688 165.367188 253.25 166.242188 C 248.769531 167.851562 249.78125 173.242188 252.3125 174.972656 " fill-opacity="1" fill-rule="nonzero"/><path fill="#ffffff" d="M 225.019531 133.816406 C 227.570312 135.304688 232.144531 133.925781 231.15625 129.34375 C 230.644531 126.964844 228.632812 124.886719 225.769531 125.503906 C 221.265625 126.765625 222.4375 132.3125 225.019531 133.816406 " fill-opacity="1" fill-rule="nonzero"/><path fill="#ffffff" d="M 145.742188 49.222656 C 145.742188 49.210938 145.726562 49.199219 145.71875 49.191406 C 144.980469 49.210938 138.625 53.089844 137.742188 54.242188 C 138.125 54.191406 139.039062 53.679688 141.355469 52.210938 C 144.640625 50.132812 145.625 49.460938 145.742188 49.222656 " fill-opacity="1" fill-rule="nonzero"/><path fill="#ffffff" d="M 244.277344 322.628906 C 244.027344 322.6875 243.617188 322.785156 243.316406 322.992188 C 242.570312 323.515625 242.828125 324.601562 244.707031 325.03125 C 246.3125 325.402344 248.507812 324.808594 247.765625 323.601562 C 247.308594 322.863281 246.054688 322.273438 244.277344 322.628906 " fill-opacity="1" fill-rule="nonzero"/><path fill="#ffffff" d="M 160.519531 49.96875 C 161.121094 49.753906 161.945312 49.335938 163.878906 47.785156 C 165.464844 46.519531 167.273438 44.992188 166.90625 44.902344 C 166.90625 44.902344 166.902344 44.902344 166.898438 44.902344 C 166.105469 44.945312 159.847656 49.316406 160.519531 49.96875 " fill-opacity="1" fill-rule="nonzero"/><path fill="#ffffff" d="M 152.769531 48.476562 C 153.4375 48.292969 154.511719 47.738281 156.871094 46.355469 C 160.847656 44.027344 160.894531 43.890625 160.941406 43.761719 C 160.941406 43.761719 160.941406 43.761719 160.9375 43.761719 C 160.355469 43.679688 153.234375 47.550781 152.769531 48.476562 " fill-opacity="1" fill-rule="nonzero"/><path fill="#ffffff" d="M 249.648438 315.191406 C 249.527344 315.21875 249.40625 315.253906 249.285156 315.292969 C 247.695312 315.785156 246.863281 317.40625 248.882812 318.394531 C 250.664062 319.269531 253.667969 318.214844 253.121094 316.515625 C 253.019531 316.199219 252.378906 314.65625 249.648438 315.191406 " fill-opacity="1" fill-rule="nonzero"/><path fill="#ffffff" d="M 180.878906 75.796875 C 181.761719 76.933594 184.40625 76.578125 184.710938 72.992188 C 184.714844 72.957031 184.695312 69.792969 182.59375 70.089844 C 180.195312 70.605469 179.875 74.503906 180.878906 75.796875 " fill-opacity="1" fill-rule="nonzero"/><path fill="#ffffff" d="M 190.171875 85.695312 C 190.1875 85.703125 191.53125 86.820312 192.796875 85.929688 C 193.253906 85.609375 194.460938 84.761719 194.328125 82.769531 C 194.316406 82.617188 194.050781 79.074219 191.300781 79.542969 C 188.613281 80.171875 188.550781 84.320312 190.171875 85.695312 " fill-opacity="1" fill-rule="nonzero"/><path fill="#ffffff" d="M 257.167969 305.734375 C 254.496094 306.484375 254.378906 308.582031 255.71875 309.550781 C 257.222656 310.636719 260.921875 309.648438 260.613281 307.292969 C 260.425781 305.851562 259.105469 305.253906 257.167969 305.734375 " fill-opacity="1" fill-rule="nonzero"/><path fill="#ffffff" d="M 243.234375 144.210938 C 245.292969 145.519531 249.867188 144.648438 249.078125 139.972656 C 248.945312 139.203125 247.496094 135.535156 243.726562 136.621094 C 239.378906 138.113281 241.433594 143.066406 243.234375 144.210938 " fill-opacity="1" fill-rule="nonzero"/><path fill="#ffffff" d="M 274.609375 256.527344 C 270.210938 258.007812 271.335938 261.800781 272.03125 262.6875 C 273.667969 264.773438 278.722656 263.492188 278.984375 259.320312 C 279.027344 258.675781 278.390625 255.425781 274.609375 256.527344 " fill-opacity="1" fill-rule="nonzero"/><path fill="#ffffff" d="M 131.761719 56.085938 C 135.257812 53.519531 135.257812 53.519531 135.472656 53.332031 C 135.492188 53.308594 135.519531 53.28125 135.535156 53.257812 C 134.976562 53.492188 129.945312 57.238281 129.554688 57.710938 C 130.335938 57.230469 131.027344 56.628906 131.761719 56.085938 " fill-opacity="1" fill-rule="nonzero"/><g clip-path="url(#323f933dce)"><path fill="#ffffff" d="M 159.371094 42.867188 C 159.101562 42.722656 152.707031 45.847656 151.953125 46.675781 C 152.160156 46.738281 153.140625 46.257812 155.402344 45.078125 C 158.574219 43.429688 159.277344 43.039062 159.371094 42.867188 " fill-opacity="1" fill-rule="nonzero"/></g><path fill="#ffffff" d="M 244.15625 329.253906 C 245.214844 329.109375 245.421875 328.832031 244.816406 328.390625 C 244.804688 328.382812 243.476562 327.558594 241.574219 327.894531 C 241.347656 327.9375 240.875 328.035156 240.726562 328.234375 C 240.363281 328.722656 242.296875 329.515625 244.15625 329.253906 " fill-opacity="1" fill-rule="nonzero"/><path fill="#ffffff" d="M 178.148438 63.75 C 178.378906 62.472656 178.378906 60.988281 177.070312 61.140625 C 175.085938 61.519531 174.300781 65.304688 175.019531 66.238281 C 175.699219 67.117188 177.652344 66.484375 178.148438 63.75 " fill-opacity="1" fill-rule="nonzero"/><path fill="#ffffff" d="M 269.933594 296.027344 C 269.902344 295.082031 269.441406 293.585938 266.730469 294.242188 C 262.773438 295.457031 264.398438 298.207031 264.761719 298.535156 C 266.078125 299.726562 270.023438 298.625 269.933594 296.027344 " fill-opacity="1" fill-rule="nonzero"/><path fill="#ffffff" d="M 169.402344 47.4375 C 169.476562 47.355469 169.582031 47.253906 169.65625 47.171875 C 171.480469 45.285156 171.371094 45.070312 171.128906 45.078125 C 170.191406 45.222656 166.5625 48.582031 166.507812 49.351562 C 166.484375 49.699219 167.179688 49.699219 169.402344 47.4375 " fill-opacity="1" fill-rule="nonzero"/><path fill="#ffffff" d="M 202.371094 95.660156 C 204.078125 96.789062 207.324219 95.71875 206.621094 92.3125 C 206.253906 90.535156 205.09375 88.828125 202.949219 89.351562 C 199.6875 90.328125 200.816406 94.632812 202.371094 95.660156 " fill-opacity="1" fill-rule="nonzero"/><path fill="#ffffff" d="M 217.03125 105.476562 C 219.074219 106.675781 222.1875 105.191406 221.25 102.046875 C 220.871094 100.769531 219.847656 98.71875 217.265625 99.304688 C 213.933594 100.230469 215.355469 104.496094 217.03125 105.476562 " fill-opacity="1" fill-rule="nonzero"/><path fill="#ffffff" d="M 271.679688 185.160156 C 273.515625 186.839844 278.214844 186.28125 277.804688 181.003906 C 277.691406 179.515625 275.886719 178.300781 275.867188 178.289062 C 274.710938 177.570312 273.621094 177.867188 273.03125 178.027344 C 268.988281 179.359375 270.132812 183.738281 271.679688 185.160156 " fill-opacity="1" fill-rule="nonzero"/><path fill="#ffffff" d="M 241.628906 330.894531 C 241.46875 330.921875 241.132812 330.980469 241.140625 331.066406 C 241.152344 331.1875 241.925781 331.324219 243.148438 331.332031 C 243.75 331.335938 245.160156 331.253906 245.226562 331.09375 C 245.1875 331.058594 245.121094 331.027344 244.648438 330.949219 C 244.632812 330.945312 242.933594 330.699219 241.628906 330.894531 " fill-opacity="1" fill-rule="nonzero"/><path fill="#ffffff" d="M 172.410156 56.898438 C 172.492188 57.128906 172.765625 57.609375 173.503906 57.0625 C 173.914062 56.761719 174.515625 56.214844 175.019531 54.964844 C 175.378906 54.070312 175.847656 52.585938 174.921875 52.65625 C 173.683594 52.851562 172.0625 55.910156 172.410156 56.898438 " fill-opacity="1" fill-rule="nonzero"/><path fill="#ffffff" d="M 279.671875 216.707031 C 280.683594 217.414062 282.695312 217.449219 283.402344 216.957031 C 284.0625 216.496094 286.070312 215.097656 285.660156 212.53125 C 285.328125 210.46875 283.808594 208.769531 281.152344 209.617188 C 276.957031 211.160156 278.167969 215.660156 279.671875 216.707031 " fill-opacity="1" fill-rule="nonzero"/><path fill="#ffffff" d="M 142.53125 49.566406 C 142.566406 49.546875 145.871094 47.617188 146.242188 47.269531 C 146.238281 47.257812 146.242188 47.246094 146.242188 47.234375 C 145.699219 47.328125 140.695312 50.222656 140.035156 50.917969 C 140.035156 50.925781 140.039062 50.941406 140.039062 50.949219 C 140.25 50.890625 140.855469 50.542969 142.53125 49.566406 " fill-opacity="1" fill-rule="nonzero"/><path fill="#ffffff" d="M 286.8125 239.382812 C 283.691406 240.410156 283.402344 243.628906 284.878906 245.109375 C 286.515625 246.753906 290.417969 244.996094 290.367188 241.972656 C 290.355469 241.375 290.136719 238.4375 286.8125 239.382812 " fill-opacity="1" fill-rule="nonzero"/><path fill="#ffffff" d="M 280.558594 282.757812 C 280.566406 281.980469 280.304688 280.25 277.710938 280.933594 C 274.679688 281.847656 274.757812 284.421875 275.601562 285.308594 C 276.890625 286.664062 280.539062 285.179688 280.558594 282.757812 " fill-opacity="1" fill-rule="nonzero"/><path fill="#ffffff" d="M 262.628906 154.144531 C 264.757812 155.496094 268.4375 153.835938 267.511719 150.496094 C 267.269531 149.628906 266.246094 146.882812 263.097656 147.757812 C 259.546875 148.9375 260.875 153.027344 262.628906 154.144531 " fill-opacity="1" fill-rule="nonzero"/><path fill="#ffffff" d="M 233.644531 115.03125 C 235.175781 116.003906 238.511719 115.394531 237.707031 112.003906 C 237.699219 111.96875 236.75 108.589844 233.742188 109.472656 C 230.433594 110.605469 232.460938 114.28125 233.644531 115.03125 " fill-opacity="1" fill-rule="nonzero"/><path fill="#ffffff" d="M 175.355469 46.867188 C 175.496094 46.671875 176.726562 44.972656 176.125 44.972656 C 175.238281 45.160156 173.375 47.707031 173.40625 48.269531 C 173.40625 48.28125 173.671875 49.15625 175.355469 46.867188 " fill-opacity="1" fill-rule="nonzero"/><path fill="#ffffff" d="M 255.335938 325.457031 C 255.242188 325.480469 255.148438 325.503906 255.054688 325.535156 C 254.210938 325.820312 254.421875 326.257812 254.832031 326.464844 C 255.5 326.800781 257.152344 326.527344 256.917969 325.808594 C 256.914062 325.804688 256.5625 325.207031 255.335938 325.457031 " fill-opacity="1" fill-rule="nonzero"/><path fill="#ffffff" d="M 289.5 266.089844 C 287.886719 266.679688 286.753906 268.679688 287.796875 269.914062 C 288.863281 271.171875 291.734375 270 291.945312 267.738281 C 292.101562 266.015625 290.832031 265.667969 289.5 266.089844 " fill-opacity="1" fill-rule="nonzero"/><path fill="#ffffff" d="M 252.117188 124.4375 C 254.0625 125.40625 256.246094 123.875 255.335938 121.511719 C 254.742188 119.972656 253.378906 119.246094 251.941406 119.707031 C 249.324219 120.691406 250.703125 123.738281 252.117188 124.4375 " fill-opacity="1" fill-rule="nonzero"/><path fill="#ffffff" d="M 260.898438 319.457031 C 259.652344 319.773438 259.453125 320.554688 259.863281 320.957031 C 260.578125 321.652344 262.554688 321.039062 262.507812 320.132812 C 262.488281 319.753906 262.125 319.1875 260.898438 319.457031 " fill-opacity="1" fill-rule="nonzero"/><path fill="#ffffff" d="M 291.566406 195.191406 C 292.785156 196.101562 295.660156 195.0625 295.238281 192.425781 C 295.027344 191.105469 294.34375 189.671875 292.285156 190.308594 C 289.605469 191.261719 290.417969 194.332031 291.566406 195.191406 " fill-opacity="1" fill-rule="nonzero"/><path fill="#ffffff" d="M 298.855469 221.261719 C 296.277344 222.179688 296.871094 224.996094 297.75 225.628906 C 297.757812 225.636719 298.875 226.386719 300.25 225.371094 C 300.558594 225.144531 301.496094 224.453125 301.351562 222.964844 C 301.261719 222.066406 300.820312 220.644531 298.855469 221.261719 " fill-opacity="1" fill-rule="nonzero"/><path fill="#ffffff" d="M 268.628906 311.351562 C 266.710938 311.921875 267.457031 313.21875 267.46875 313.230469 C 267.960938 313.851562 270.082031 313.378906 270.199219 312.121094 C 270.230469 311.753906 270.144531 310.945312 268.628906 311.351562 " fill-opacity="1" fill-rule="nonzero"/><path fill="#ffffff" d="M 209.445312 79.9375 C 210.296875 80.421875 212.070312 79.933594 211.476562 78.082031 C 211.289062 77.492188 210.703125 76.15625 209.335938 76.523438 C 207.488281 77.121094 208.628906 79.472656 209.445312 79.9375 " fill-opacity="1" fill-rule="nonzero"/><path fill="#ffffff" d="M 253.800781 329.242188 C 253.640625 329.164062 253.179688 329.003906 252.371094 329.171875 C 252.238281 329.195312 251.96875 329.257812 251.921875 329.347656 C 251.796875 329.578125 253.035156 329.714844 253.734375 329.476562 C 253.953125 329.402344 253.976562 329.324219 253.800781 329.242188 " fill-opacity="1" fill-rule="nonzero"/><path fill="#ffffff" d="M 197.457031 71.148438 C 198.066406 71.667969 199.75 71.609375 199.511719 69.585938 C 199.507812 69.5625 199.175781 67.582031 197.691406 67.9375 C 196.238281 68.375 196.757812 70.550781 197.457031 71.148438 " fill-opacity="1" fill-rule="nonzero"/><path fill="#ffffff" d="M 184.34375 53.308594 C 184.421875 52.839844 184.515625 51.761719 183.792969 51.863281 C 182.859375 52.0625 182.640625 53.96875 183.003906 54.390625 C 183.335938 54.78125 184.148438 54.535156 184.34375 53.308594 " fill-opacity="1" fill-rule="nonzero"/><path fill="#ffffff" d="M 188.648438 62.65625 C 188.832031 62.8125 189.320312 63.117188 189.894531 62.601562 C 190.136719 62.382812 190.410156 61.945312 190.34375 61.121094 C 190.316406 60.71875 190.132812 59.433594 189.125 59.652344 C 187.816406 60.023438 188.074219 62.175781 188.648438 62.65625 " fill-opacity="1" fill-rule="nonzero"/><path fill="#ffffff" d="M 282.554688 163.726562 C 283.605469 164.351562 286.433594 163.867188 285.804688 160.96875 C 285.800781 160.941406 285.15625 158.472656 282.851562 159.179688 C 280.230469 160.117188 281.476562 163.089844 282.554688 163.726562 " fill-opacity="1" fill-rule="nonzero"/><path fill="#ffffff" d="M 224.050781 88.605469 C 225.054688 88.984375 225.324219 88.6875 225.664062 88.308594 C 225.832031 88.125 226.179688 87.589844 225.796875 86.667969 C 225.375 85.65625 224.453125 85.128906 223.554688 85.390625 C 223.511719 85.40625 223.453125 85.421875 223.410156 85.4375 C 222.21875 85.945312 222.648438 88.074219 224.050781 88.605469 " fill-opacity="1" fill-rule="nonzero"/><path fill="#ffffff" d="M 278.445312 301.027344 C 277.105469 301.433594 276.691406 302.542969 277.066406 303.089844 C 277.421875 303.613281 278.484375 303.347656 278.496094 303.34375 C 278.507812 303.339844 279.625 302.746094 279.78125 301.988281 C 279.859375 301.628906 279.777344 300.679688 278.445312 301.027344 " fill-opacity="1" fill-rule="nonzero"/><path fill="#ffffff" d="M 289.578125 288.886719 C 288.214844 289.371094 288.308594 290.53125 288.492188 290.777344 C 288.875 291.285156 290.414062 290.8125 290.648438 289.722656 C 290.691406 289.511719 290.855469 288.480469 289.578125 288.886719 " fill-opacity="1" fill-rule="nonzero"/><g clip-path="url(#77521329ed)"><path fill="#ffffff" d="M 301.9375 249.824219 C 300.550781 250.316406 300.261719 251.972656 300.882812 252.65625 C 301.566406 253.414062 303.53125 252.445312 303.59375 251 C 303.621094 250.351562 303.441406 249.339844 301.9375 249.824219 " fill-opacity="1" fill-rule="nonzero"/></g><path fill="#ffffff" d="M 271.503906 133.4375 C 272.496094 133.933594 274.296875 133.148438 273.640625 131.472656 C 273.390625 130.820312 272.769531 129.792969 271.453125 130.195312 C 269.523438 130.890625 270.652344 133.011719 271.503906 133.4375 " fill-opacity="1" fill-rule="nonzero"/><path fill="#ffffff" d="M 240.574219 96.996094 C 240.644531 97.023438 241.28125 97.257812 241.707031 96.847656 C 242.054688 96.515625 242.136719 96.121094 241.953125 95.671875 C 241.949219 95.65625 241.386719 94.320312 240.230469 94.632812 C 240.175781 94.648438 240.121094 94.671875 240.066406 94.695312 C 238.984375 95.203125 239.765625 96.675781 240.574219 96.996094 " fill-opacity="1" fill-rule="nonzero"/><g clip-path="url(#b895206bcd)"><g clip-path="url(#bd484d0f7d)"><path fill="#000000" d="M -13.671875 337.5 L 37.5 337.5 L 37.5 388.671875 L -13.671875 388.671875 Z M -13.671875 337.5 " fill-opacity="1" fill-rule="nonzero"/></g></g></svg>